<svg width="34" height="34" viewBox="0 0 34 34" fill="none" xmlns="http://www.w3.org/2000/svg">
<path d="M9.04117 8.45475C11.299 6.64576 14.1069 5.66214 17 5.66675C20.0104 5.66675 22.7772 6.70941 24.9588 8.45475L27.0173 6.39633L29.0204 8.3995L26.962 10.4579C28.2331 12.0492 29.1045 13.9218 29.5032 15.9191C29.902 17.9163 29.8165 19.98 29.2539 21.9374C28.6913 23.8947 27.668 25.6889 26.2696 27.1696C24.8713 28.6503 23.1386 29.7744 21.2165 30.448C19.2945 31.1215 17.2391 31.3248 15.2223 31.0408C13.2056 30.7569 11.2862 29.9939 9.62486 28.8158C7.96353 27.6378 6.60859 26.0788 5.67346 24.2696C4.73833 22.4603 4.25022 20.4534 4.25 18.4167C4.25 15.4063 5.29267 12.6396 7.038 10.4579L4.97958 8.40091L6.98275 6.39775L9.04117 8.45475ZM17 28.3334C18.3023 28.3334 19.5918 28.0769 20.7949 27.5786C21.9981 27.0802 23.0913 26.3497 24.0121 25.4289C24.933 24.508 25.6634 23.4148 26.1618 22.2117C26.6602 21.0085 26.9167 19.719 26.9167 18.4167C26.9167 17.1145 26.6602 15.8249 26.1618 14.6218C25.6634 13.4187 24.933 12.3255 24.0121 11.4046C23.0913 10.4838 21.9981 9.7533 20.7949 9.25494C19.5918 8.75658 18.3023 8.50008 17 8.50008C14.3699 8.50008 11.8476 9.54487 9.98786 11.4046C8.12812 13.2643 7.08333 15.7867 7.08333 18.4167C7.08333 21.0468 8.12812 23.5692 9.98786 25.4289C11.8476 27.2886 14.3699 28.3334 17 28.3334ZM18.4167 17.0001H22.6667L15.5833 26.2084V19.8334H11.3333L18.4167 10.618V17.0001ZM11.3333 1.41675H22.6667V4.25008H11.3333V1.41675Z" fill="#414141"/>
</svg>
