<svg width="382" height="46" viewBox="0 0 382 46" fill="none" xmlns="http://www.w3.org/2000/svg">
<g clip-path="url(#clip0_979_66)">
<path d="M12.2222 8.35547H34.2222V10.2499H12.2222V8.35547Z" fill="black"/>
<path d="M35.4444 11.7777H12.0511C11.7392 11.7732 11.4314 11.7057 11.1463 11.5791C10.8612 11.4525 10.6047 11.2695 10.3923 11.041C10.1799 10.8126 10.0159 10.5435 9.91028 10.25C9.80466 9.9565 9.75959 9.64463 9.77778 9.33322C9.77626 8.7135 10.0102 8.11634 10.4322 7.66253C10.8543 7.20873 11.4329 6.93216 12.0511 6.88878H35.4444C35.7686 6.88878 36.0795 6.76001 36.3087 6.5308C36.5379 6.30159 36.6667 5.99071 36.6667 5.66656C36.6667 5.3424 36.5379 5.03153 36.3087 4.80232C36.0795 4.57311 35.7686 4.44434 35.4444 4.44434H12.0511C10.7844 4.4887 9.58439 5.0233 8.70424 5.93538C7.82408 6.84746 7.33255 8.06572 7.33333 9.33322C7.32151 9.53268 7.32151 9.73266 7.33333 9.93211C7.32156 10.0295 7.32156 10.128 7.33333 10.2254V38.6666C7.33255 39.9341 7.82408 41.1523 8.70424 42.0644C9.58439 42.9765 10.7844 43.5111 12.0511 43.5554H35.4444C35.7686 43.5554 36.0795 43.4267 36.3087 43.1975C36.5379 42.9683 36.6667 42.6574 36.6667 42.3332V13.0854C36.6674 12.7529 36.5414 12.4326 36.3144 12.1897C36.0873 11.9468 35.7762 11.7994 35.4444 11.7777ZM34.2222 41.111H12.0511C11.4329 41.0676 10.8543 40.7911 10.4322 40.3372C10.0102 39.8834 9.77626 39.2863 9.77778 38.6666V13.6721C10.4727 14.0555 11.2578 14.2454 12.0511 14.2221H34.2222V41.111Z" fill="black"/>
</g>
<g clip-path="url(#clip1_979_66)">
<path d="M369.778 8.35547H347.778V10.2499H369.778V8.35547Z" fill="black"/>
<path d="M346.556 11.7777H369.949C370.261 11.7732 370.569 11.7057 370.854 11.5791C371.139 11.4525 371.395 11.2695 371.608 11.041C371.82 10.8126 371.984 10.5435 372.09 10.25C372.195 9.9565 372.24 9.64463 372.222 9.33322C372.224 8.7135 371.99 8.11634 371.568 7.66253C371.146 7.20873 370.567 6.93216 369.949 6.88878H346.556C346.231 6.88878 345.921 6.76001 345.691 6.5308C345.462 6.30159 345.333 5.99071 345.333 5.66656C345.333 5.3424 345.462 5.03153 345.691 4.80232C345.921 4.57311 346.231 4.44434 346.556 4.44434H369.949C371.216 4.4887 372.416 5.0233 373.296 5.93538C374.176 6.84746 374.667 8.06572 374.667 9.33322C374.678 9.53268 374.678 9.73266 374.667 9.93211C374.678 10.0295 374.678 10.128 374.667 10.2254V38.6666C374.667 39.9341 374.176 41.1523 373.296 42.0644C372.416 42.9765 371.216 43.5111 369.949 43.5554H346.556C346.231 43.5554 345.921 43.4267 345.691 43.1975C345.462 42.9683 345.333 42.6574 345.333 42.3332V13.0854C345.333 12.7529 345.459 12.4326 345.686 12.1897C345.913 11.9468 346.224 11.7994 346.556 11.7777ZM347.778 41.111H369.949C370.567 41.0676 371.146 40.7911 371.568 40.3372C371.99 39.8834 372.224 39.2863 372.222 38.6666V13.6721C371.527 14.0555 370.742 14.2454 369.949 14.2221H347.778V41.111Z" fill="black"/>
</g>
<path d="M157.613 30V11.64H163.202C164.57 11.64 165.65 11.838 166.442 12.234C167.252 12.63 167.828 13.188 168.17 13.908C168.53 14.628 168.71 15.474 168.71 16.446V17.202C168.71 18.624 168.098 19.713 166.874 20.469C167.738 20.811 168.395 21.306 168.845 21.954C169.295 22.602 169.52 23.376 169.52 24.276V25.032C169.52 26.022 169.34 26.895 168.98 27.651C168.62 28.389 168.026 28.965 167.198 29.379C166.37 29.793 165.263 30 163.877 30H157.613ZM163.202 14.61H160.853V19.2H163.202C163.922 19.2 164.462 19.038 164.822 18.714C165.2 18.372 165.389 17.913 165.389 17.337V16.446C165.389 15.87 165.2 15.42 164.822 15.096C164.462 14.772 163.922 14.61 163.202 14.61ZM163.877 22.17H160.853V27.03H163.877C164.633 27.03 165.209 26.85 165.605 26.49C166.001 26.13 166.199 25.644 166.199 25.032V24.141C166.199 23.529 166.001 23.052 165.605 22.71C165.209 22.35 164.633 22.17 163.877 22.17ZM184.207 22.332V23.952C184.207 25.86 183.685 27.39 182.641 28.542C181.597 29.694 180.121 30.27 178.213 30.27C176.305 30.27 174.829 29.694 173.785 28.542C172.741 27.39 172.219 25.86 172.219 23.952V22.332C172.219 20.424 172.732 18.903 173.758 17.769C174.802 16.617 176.287 16.041 178.213 16.041C180.139 16.041 181.615 16.617 182.641 17.769C183.685 18.903 184.207 20.424 184.207 22.332ZM181.021 22.332C181.021 21.234 180.778 20.379 180.292 19.767C179.806 19.137 179.113 18.822 178.213 18.822C177.313 18.822 176.62 19.137 176.134 19.767C175.648 20.379 175.405 21.234 175.405 22.332V23.952C175.405 25.05 175.648 25.914 176.134 26.544C176.62 27.174 177.313 27.489 178.213 27.489C179.113 27.489 179.806 27.174 180.292 26.544C180.778 25.914 181.021 25.05 181.021 23.952V22.332ZM198.893 22.332V23.952C198.893 25.86 198.371 27.39 197.327 28.542C196.283 29.694 194.807 30.27 192.899 30.27C190.991 30.27 189.515 29.694 188.471 28.542C187.427 27.39 186.905 25.86 186.905 23.952V22.332C186.905 20.424 187.418 18.903 188.444 17.769C189.488 16.617 190.973 16.041 192.899 16.041C194.825 16.041 196.301 16.617 197.327 17.769C198.371 18.903 198.893 20.424 198.893 22.332ZM195.707 22.332C195.707 21.234 195.464 20.379 194.978 19.767C194.492 19.137 193.799 18.822 192.899 18.822C191.999 18.822 191.306 19.137 190.82 19.767C190.334 20.379 190.091 21.234 190.091 22.332V23.952C190.091 25.05 190.334 25.914 190.82 26.544C191.306 27.174 191.999 27.489 192.899 27.489C193.799 27.489 194.492 27.174 194.978 26.544C195.464 25.914 195.707 25.05 195.707 23.952V22.332ZM210.556 30L207.181 24.303C206.641 24.843 206.074 25.383 205.48 25.923V30H202.375V10.02H205.48V22.494C206.506 21.45 207.388 20.451 208.126 19.497C208.882 18.525 209.575 17.463 210.205 16.311H213.769C213.175 17.391 212.527 18.417 211.825 19.389C211.123 20.361 210.349 21.342 209.503 22.332L214.309 30H210.556ZM220.579 27.57C221.245 27.57 221.794 27.462 222.226 27.246C222.658 27.012 222.874 26.67 222.874 26.22C222.874 25.824 222.73 25.518 222.442 25.302C222.172 25.068 221.677 24.861 220.957 24.681L219.418 24.276C218.23 23.97 217.348 23.457 216.772 22.737C216.214 22.017 215.935 21.162 215.935 20.172C215.935 19.002 216.34 18.021 217.15 17.229C217.96 16.437 219.211 16.041 220.903 16.041C221.587 16.041 222.307 16.122 223.063 16.284C223.819 16.446 224.611 16.707 225.439 17.067L224.548 19.713C223.792 19.353 223.108 19.101 222.496 18.957C221.884 18.813 221.344 18.741 220.876 18.741C219.598 18.741 218.959 19.173 218.959 20.037C218.959 20.379 219.067 20.649 219.283 20.847C219.517 21.045 219.94 21.225 220.552 21.387L222.091 21.792C223.405 22.134 224.359 22.656 224.953 23.358C225.565 24.06 225.871 24.942 225.871 26.004C225.871 27.264 225.439 28.29 224.575 29.082C223.729 29.874 222.388 30.27 220.552 30.27C218.986 30.27 217.339 29.91 215.611 29.19L216.448 26.625C217.294 26.967 218.059 27.21 218.743 27.354C219.427 27.498 220.039 27.57 220.579 27.57Z" fill="black"/>
<defs>
<clipPath id="clip0_979_66">
<rect width="44" height="44" fill="white" transform="translate(0 2)"/>
</clipPath>
<clipPath id="clip1_979_66">
<rect width="44" height="44" fill="white" transform="matrix(-1 0 0 1 382 2)"/>
</clipPath>
</defs>
</svg>
