<svg width="382" height="40" viewBox="0 0 382 40" fill="none" xmlns="http://www.w3.org/2000/svg">
<path d="M14.985 26.75L13.5225 27.461C10.5525 28.283 9.06598 28.694 8.26498 27.8285C7.46398 26.9645 7.87798 25.3985 8.70748 22.2635L8.92048 21.4535C9.15598 20.561 9.27448 20.117 9.21598 19.6745C9.15598 19.2335 8.92648 18.845 8.46748 18.0695L8.05048 17.3645C6.43498 14.633 5.62798 13.268 6.16498 12.1805C6.70498 11.0945 8.23348 11.006 11.292 10.8305L12.0825 10.7855C12.9525 10.7345 13.386 10.7105 13.7655 10.508C14.1435 10.3055 14.424 9.94999 14.985 9.23599L15.495 8.58799C17.469 6.07849 18.456 4.82449 19.59 5.01799C20.724 5.21149 21.255 6.72349 22.3155 9.74899L22.59 10.532C22.8915 11.3915 23.043 11.822 23.3355 12.137C23.6295 12.455 24.0315 12.623 24.837 12.9575L25.5705 13.2635C28.4055 14.4425 29.823 15.0335 29.9835 16.238C30.1215 17.267 29.268 18.1625 27.5235 19.673" stroke="black" stroke-width="1.5"/>
<path d="M22.5253 19.3567C21.0448 17.5867 20.3053 16.7017 19.4533 16.8367C18.6028 16.9732 18.2053 18.0412 17.4103 20.1772L17.2033 20.7292C16.9783 21.3367 16.8643 21.6397 16.6438 21.8632C16.4248 22.0867 16.1218 22.2052 15.5188 22.4422L14.9683 22.6567C12.8428 23.4892 11.7793 23.9062 11.6578 24.7567C11.5378 25.6072 12.4378 26.3302 14.2393 27.7732L14.7043 28.1482C15.2173 28.5577 15.4738 28.7632 15.6208 29.0437C15.7708 29.3242 15.7933 29.6497 15.8398 30.2992L15.8833 30.8902C16.0483 33.1747 16.1323 34.3177 16.9078 34.7077C17.6833 35.0977 18.6388 34.4752 20.5483 33.2332L21.0418 32.9107C21.5848 32.5582 21.8563 32.3812 22.1668 32.3302C22.4788 32.2807 22.7968 32.3632 23.4283 32.5282L24.0058 32.6782C26.2333 33.2572 27.3478 33.5482 27.9493 32.9377C28.5493 32.3272 28.2388 31.2217 27.6178 29.0077L27.4558 28.4377C27.2803 27.8077 27.1918 27.4927 27.2353 27.1822C27.2803 26.8702 27.4528 26.5972 27.7963 26.0482L28.1113 25.5502C29.3218 23.6227 29.9263 22.6597 29.5213 21.8932C29.1178 21.1267 27.9718 21.0637 25.6783 20.9407L25.0843 20.9077C24.4333 20.8732 24.1063 20.8552 23.8228 20.7127C23.5378 20.5702 23.3278 20.3182 22.9078 19.8142L22.5253 19.3567Z" stroke="black" stroke-width="1.5"/>
<path d="M367.015 26.75L368.478 27.461C371.448 28.283 372.934 28.694 373.735 27.8285C374.536 26.9645 374.122 25.3985 373.293 22.2635L373.08 21.4535C372.844 20.561 372.726 20.117 372.784 19.6745C372.844 19.2335 373.074 18.845 373.533 18.0695L373.95 17.3645C375.565 14.633 376.372 13.268 375.835 12.1805C375.295 11.0945 373.767 11.006 370.708 10.8305L369.918 10.7855C369.048 10.7345 368.614 10.7105 368.235 10.508C367.857 10.3055 367.576 9.94999 367.015 9.23599L366.505 8.58799C364.531 6.07849 363.544 4.82449 362.41 5.01799C361.276 5.21149 360.745 6.72349 359.685 9.74899L359.41 10.532C359.109 11.3915 358.957 11.822 358.665 12.137C358.371 12.455 357.969 12.623 357.163 12.9575L356.43 13.2635C353.595 14.4425 352.177 15.0335 352.017 16.238C351.879 17.267 352.732 18.1625 354.477 19.673" stroke="black" stroke-width="1.5"/>
<path d="M359.122 18.0334C360.603 16.2634 361.342 15.3784 362.194 15.5134C363.045 15.6499 363.442 16.7179 364.237 18.8539L364.444 19.4059C364.669 20.0134 364.783 20.3164 365.004 20.5399C365.223 20.7634 365.526 20.8819 366.129 21.1189L366.679 21.3334C368.805 22.1659 369.868 22.5829 369.99 23.4334C370.11 24.2839 369.21 25.0069 367.408 26.4499L366.943 26.8249C366.43 27.2344 366.174 27.4399 366.027 27.7204C365.877 28.0009 365.854 28.3264 365.808 28.9759L365.764 29.5669C365.599 31.8514 365.515 32.9944 364.74 33.3844C363.964 33.7744 363.009 33.1519 361.099 31.9099L360.606 31.5874C360.063 31.2349 359.791 31.0579 359.481 31.0069C359.169 30.9574 358.851 31.0399 358.219 31.2049L357.642 31.3549C355.414 31.9339 354.3 32.2249 353.698 31.6144C353.098 31.0039 353.409 29.8984 354.03 27.6844L354.192 27.1144C354.367 26.4844 354.456 26.1694 354.412 25.8589C354.367 25.5469 354.195 25.2739 353.851 24.7249L353.536 24.2269C352.326 22.2994 351.721 21.3364 352.126 20.5699C352.53 19.8034 353.676 19.7404 355.969 19.6174L356.563 19.5844C357.214 19.5499 357.541 19.5319 357.825 19.3894C358.11 19.2469 358.32 18.9949 358.74 18.4909L359.122 18.0334Z" stroke="black" stroke-width="1.5"/>
<path d="M117.335 26.895V30H106.697V11.64H117.065V14.745H109.937V19.146H116.255V22.251H109.937V26.895H117.335ZM128.786 30V28.137C127.958 28.965 127.238 29.532 126.626 29.838C126.032 30.126 125.411 30.27 124.763 30.27C123.287 30.27 122.135 29.712 121.307 28.596C120.497 27.48 120.092 25.914 120.092 23.898V22.44C120.092 20.478 120.587 18.921 121.577 17.769C122.567 16.617 123.998 16.041 125.87 16.041C126.338 16.041 126.797 16.086 127.247 16.176C127.715 16.266 128.174 16.392 128.624 16.554V10.02H131.729V30H128.786ZM123.278 23.898C123.278 25.104 123.476 25.986 123.872 26.544C124.286 27.102 124.862 27.381 125.6 27.381C126.014 27.381 126.455 27.264 126.923 27.03C127.391 26.778 127.958 26.31 128.624 25.626V19.362C127.742 19.002 126.932 18.822 126.194 18.822C125.15 18.822 124.403 19.146 123.953 19.794C123.503 20.442 123.278 21.324 123.278 22.44V23.898ZM139.194 13.719H135.927V10.506H139.194V13.719ZM139.113 30H136.008V16.311H139.113V30ZM151.625 29.541C151.157 29.757 150.617 29.928 150.005 30.054C149.393 30.198 148.772 30.27 148.142 30.27C147.098 30.27 146.261 30.054 145.631 29.622C145.001 29.19 144.542 28.587 144.254 27.813C143.984 27.039 143.849 26.157 143.849 25.167V19.011H141.635V16.311H143.849V12.747H146.954V16.311H151.22V19.011H146.954V25.167C146.954 25.995 147.107 26.571 147.413 26.895C147.737 27.201 148.196 27.354 148.79 27.354C149.078 27.354 149.384 27.327 149.708 27.273C150.05 27.201 150.428 27.084 150.842 26.922L151.625 29.541ZM165.327 22.332V23.952C165.327 25.86 164.805 27.39 163.761 28.542C162.717 29.694 161.241 30.27 159.333 30.27C157.425 30.27 155.949 29.694 154.905 28.542C153.861 27.39 153.339 25.86 153.339 23.952V22.332C153.339 20.424 153.852 18.903 154.878 17.769C155.922 16.617 157.407 16.041 159.333 16.041C161.259 16.041 162.735 16.617 163.761 17.769C164.805 18.903 165.327 20.424 165.327 22.332ZM162.141 22.332C162.141 21.234 161.898 20.379 161.412 19.767C160.926 19.137 160.233 18.822 159.333 18.822C158.433 18.822 157.74 19.137 157.254 19.767C156.768 20.379 156.525 21.234 156.525 22.332V23.952C156.525 25.05 156.768 25.914 157.254 26.544C157.74 27.174 158.433 27.489 159.333 27.489C160.233 27.489 160.926 27.174 161.412 26.544C161.898 25.914 162.141 25.05 162.141 23.952V22.332ZM176.53 19.146C175.684 19.146 174.874 19.281 174.1 19.551C173.344 19.803 172.615 20.217 171.913 20.793V30H168.808V16.311H171.751V18.417C172.669 17.553 173.488 16.941 174.208 16.581C174.928 16.221 175.702 16.041 176.53 16.041V19.146ZM180.87 19.524H179.061L178.521 14.232V11.64H181.41V14.232L180.87 19.524ZM188.647 27.57C189.313 27.57 189.862 27.462 190.294 27.246C190.726 27.012 190.942 26.67 190.942 26.22C190.942 25.824 190.798 25.518 190.51 25.302C190.24 25.068 189.745 24.861 189.025 24.681L187.486 24.276C186.298 23.97 185.416 23.457 184.84 22.737C184.282 22.017 184.003 21.162 184.003 20.172C184.003 19.002 184.408 18.021 185.218 17.229C186.028 16.437 187.279 16.041 188.971 16.041C189.655 16.041 190.375 16.122 191.131 16.284C191.887 16.446 192.679 16.707 193.507 17.067L192.616 19.713C191.86 19.353 191.176 19.101 190.564 18.957C189.952 18.813 189.412 18.741 188.944 18.741C187.666 18.741 187.027 19.173 187.027 20.037C187.027 20.379 187.135 20.649 187.351 20.847C187.585 21.045 188.008 21.225 188.62 21.387L190.159 21.792C191.473 22.134 192.427 22.656 193.021 23.358C193.633 24.06 193.939 24.942 193.939 26.004C193.939 27.264 193.507 28.29 192.643 29.082C191.797 29.874 190.456 30.27 188.62 30.27C187.054 30.27 185.407 29.91 183.679 29.19L184.516 26.625C185.362 26.967 186.127 27.21 186.811 27.354C187.495 27.498 188.107 27.57 188.647 27.57ZM205.421 22.737C205.421 24.051 205.709 25.131 206.285 25.977C206.861 26.805 207.806 27.219 209.12 27.219C209.66 27.219 210.218 27.147 210.794 27.003C211.388 26.859 212.117 26.616 212.981 26.274L213.98 29.082C213.008 29.514 212.108 29.82 211.28 30C210.47 30.18 209.687 30.27 208.931 30.27C207.419 30.27 206.15 29.946 205.124 29.298C204.116 28.65 203.36 27.759 202.856 26.625C202.352 25.491 202.1 24.195 202.1 22.737V18.876C202.1 17.418 202.352 16.122 202.856 14.988C203.36 13.854 204.116 12.972 205.124 12.342C206.15 11.694 207.419 11.37 208.931 11.37C209.669 11.37 210.434 11.46 211.226 11.64C212.018 11.802 212.882 12.09 213.818 12.504L212.819 15.366C211.991 15.024 211.298 14.781 210.74 14.637C210.182 14.493 209.642 14.421 209.12 14.421C207.806 14.421 206.861 14.835 206.285 15.663C205.709 16.491 205.421 17.562 205.421 18.876V22.737ZM223.651 18.93C223.201 18.93 222.688 19.038 222.112 19.254C221.536 19.47 220.852 19.893 220.06 20.523V30H216.955V10.02H220.06V18.012C220.888 17.31 221.662 16.806 222.382 16.5C223.102 16.194 223.84 16.041 224.596 16.041C225.91 16.041 226.909 16.464 227.593 17.31C228.277 18.138 228.619 19.308 228.619 20.82V30H225.514V21.198C225.514 19.686 224.893 18.93 223.651 18.93ZM243.927 22.332V23.952C243.927 25.86 243.405 27.39 242.361 28.542C241.317 29.694 239.841 30.27 237.933 30.27C236.025 30.27 234.549 29.694 233.505 28.542C232.461 27.39 231.939 25.86 231.939 23.952V22.332C231.939 20.424 232.452 18.903 233.478 17.769C234.522 16.617 236.007 16.041 237.933 16.041C239.859 16.041 241.335 16.617 242.361 17.769C243.405 18.903 243.927 20.424 243.927 22.332ZM240.741 22.332C240.741 21.234 240.498 20.379 240.012 19.767C239.526 19.137 238.833 18.822 237.933 18.822C237.033 18.822 236.34 19.137 235.854 19.767C235.368 20.379 235.125 21.234 235.125 22.332V23.952C235.125 25.05 235.368 25.914 235.854 26.544C236.34 27.174 237.033 27.489 237.933 27.489C238.833 27.489 239.526 27.174 240.012 26.544C240.498 25.914 240.741 25.05 240.741 23.952V22.332ZM250.595 13.719H247.328V10.506H250.595V13.719ZM250.514 30H247.409V16.311H250.514V30ZM257.168 22.359V23.952C257.168 25.104 257.375 25.968 257.789 26.544C258.203 27.12 258.869 27.408 259.787 27.408C260.237 27.408 260.741 27.354 261.299 27.246C261.875 27.12 262.496 26.931 263.162 26.679L264.053 29.298C263.243 29.622 262.478 29.865 261.758 30.027C261.038 30.189 260.327 30.27 259.625 30.27C257.825 30.27 256.448 29.694 255.494 28.542C254.54 27.39 254.063 25.86 254.063 23.952V22.359C254.063 20.433 254.54 18.903 255.494 17.769C256.448 16.617 257.825 16.041 259.625 16.041C260.309 16.041 261.002 16.122 261.704 16.284C262.406 16.446 263.144 16.68 263.918 16.986L263.027 19.659C261.731 19.155 260.651 18.903 259.787 18.903C258.869 18.903 258.203 19.191 257.789 19.767C257.375 20.325 257.168 21.189 257.168 22.359ZM277.289 29.217C276.353 29.595 275.471 29.865 274.643 30.027C273.815 30.189 273.032 30.27 272.294 30.27C270.26 30.27 268.721 29.694 267.677 28.542C266.633 27.39 266.111 25.86 266.111 23.952V22.332C266.111 21.054 266.345 19.947 266.813 19.011C267.281 18.075 267.947 17.346 268.811 16.824C269.675 16.302 270.692 16.041 271.862 16.041C272.816 16.041 273.707 16.239 274.535 16.635C275.381 17.013 276.065 17.616 276.587 18.444C277.127 19.254 277.397 20.298 277.397 21.576C277.397 21.954 277.37 22.359 277.316 22.791C277.262 23.205 277.172 23.646 277.046 24.114H269.108C269.144 25.23 269.423 26.067 269.945 26.625C270.467 27.183 271.304 27.462 272.456 27.462C273.068 27.462 273.698 27.39 274.346 27.246C275.012 27.102 275.696 26.886 276.398 26.598L277.289 29.217ZM271.862 18.66C271.034 18.66 270.386 18.93 269.918 19.47C269.468 19.992 269.207 20.748 269.135 21.738H274.319C274.337 21.648 274.346 21.567 274.346 21.495C274.346 21.405 274.346 21.324 274.346 21.252C274.346 20.388 274.103 19.74 273.617 19.308C273.131 18.876 272.546 18.66 271.862 18.66Z" fill="black"/>
</svg>
