<svg width="23" height="23" viewBox="0 0 23 23" fill="none" xmlns="http://www.w3.org/2000/svg">
<path d="M21.375 0C21.6734 0 21.9595 0.118526 22.1705 0.329505C22.3815 0.540483 22.5 0.826631 22.5 1.125V13.875C22.5 14.1734 22.3815 14.4595 22.1705 14.6705C21.9595 14.8815 21.6734 15 21.375 15C21.0766 15 20.7905 14.8815 20.5795 14.6705C20.3685 14.4595 20.25 14.1734 20.25 13.875V1.125C20.25 0.826631 20.3685 0.540483 20.5795 0.329505C20.7905 0.118526 21.0766 0 21.375 0ZM0 21.375C0 21.0766 0.118526 20.7905 0.329505 20.5795C0.540483 20.3685 0.826631 20.25 1.125 20.25H13.875C14.1734 20.25 14.4595 20.3685 14.6705 20.5795C14.8815 20.7905 15 21.0766 15 21.375C15 21.6734 14.8815 21.9595 14.6705 22.1705C14.4595 22.3815 14.1734 22.5 13.875 22.5H1.125C0.826631 22.5 0.540483 22.3815 0.329505 22.1705C0.118526 21.9595 0 21.6734 0 21.375ZM6.42 4.83C6.20674 4.63128 5.92467 4.5231 5.63322 4.52824C5.34176 4.53338 5.06369 4.65145 4.85757 4.85757C4.65145 5.06369 4.53338 5.34176 4.52824 5.63322C4.5231 5.92467 4.63128 6.20674 4.83 6.42L14.58 16.17C14.683 16.2805 14.8072 16.3692 14.9452 16.4307C15.0832 16.4922 15.2322 16.5252 15.3832 16.5279C15.5343 16.5306 15.6843 16.5028 15.8244 16.4462C15.9645 16.3896 16.0917 16.3054 16.1986 16.1986C16.3054 16.0917 16.3896 15.9645 16.4462 15.8244C16.5028 15.6843 16.5306 15.5343 16.5279 15.3832C16.5252 15.2322 16.4922 15.0832 16.4307 14.9452C16.3692 14.8072 16.2805 14.683 16.17 14.58L6.42 4.83Z" fill="black"/>
</svg>
